<?xml version="1.0" encoding="UTF-8"?>
<svg width="43px" height="43px" viewBox="0 0 43 43" version="1.1" xmlns="http://www.w3.org/2000/svg" xmlns:xlink="http://www.w3.org/1999/xlink">
    <title>bus</title>
    <g id="Page-1" stroke="none" stroke-width="1" fill="none" fill-rule="evenodd">
        <g id="page03" transform="translate(-228, -1233)" fill="#EC6C44" fill-rule="nonzero">
            <g id="bus" transform="translate(228, 1233)">
                <path d="M15,21.6666667 L15,16.3333333 C15,15.59584 15.6257177,15 16.400036,15 L27.6000541,15 C28.3743724,15 29,15.59584 29,16.3333333 L29,21.6666667 C29,22.40416 28.3743724,23 27.6000541,23 L16.400036,23 C15.6257177,23 15,22.40416 15,21.6666667 Z" id="Path"></path>
                <path d="M16.5606907,27.56056 C16.279243,27.84208 15.8978646,28 15.5000724,28 C15.1021837,28 14.7206604,27.84208 14.4393335,27.56056 C14.1580307,27.27928 14,26.89792 14,26.5 C14,26.10208 14.1580307,25.72072 14.4393335,25.43944 C14.7206604,25.15792 15.1021837,25 15.5000724,25 C15.8978646,25 16.279243,25.15792 16.5606907,25.43944 C16.8418969,25.72072 17,26.10208 17,26.5 C17,26.89792 16.8418969,27.27928 16.5606907,27.56056 Z" id="Path"></path>
                <path d="M28.5604634,27.56056 C28.2792662,27.84208 27.8976587,28 27.4998793,28 C27.1020999,28 26.7207338,27.84208 26.4392952,27.56056 C26.158098,27.27928 26,26.89792 26,26.5 C26,26.10208 26.158098,25.72072 26.4392952,25.43944 C26.7207338,25.15792 27.1020999,25 27.4998793,25 C27.8976587,25 28.2792662,25.15792 28.5604634,25.43944 C28.841902,25.72072 29,26.10208 29,26.5 C29,26.89792 28.841902,27.27928 28.5604634,27.56056 Z" id="Path"></path>
                <path d="M3.96245,14.2353694 C3.363675,11.4625056 4.141975,8.45208878 6.29735,6.29735 C8.45228622,4.14219439 11.462725,3.36389439 14.2355888,3.96245 C15.7733214,1.57831939 18.4522653,0 21.5,0 C24.5475153,0 27.2266786,1.57831939 28.7643673,3.96223061 C31.5372092,3.36389439 34.547648,4.14219439 36.7029133,6.29713061 C38.8577398,8.45208878 39.6361276,11.462725 39.0378571,14.2355888 C41.4217245,15.7733214 43,18.4522653 43,21.5 C43,24.5475153 41.4217245,27.2266786 39.0378571,28.7643673 C39.6361276,31.5372092 38.8577398,34.547648 36.7029133,36.7029133 C34.547648,38.8577398 31.5372092,39.6361276 28.7643673,39.0378571 C27.2266786,41.4217245 24.5475153,43 21.5,43 C18.4522653,43 15.7733214,41.4217245 14.2355888,39.0378571 C11.462725,39.6361276 8.45228622,38.8577398 6.29735,36.7029133 C4.14219439,34.547648 3.36389439,31.5372092 3.96245,28.7643673 C1.57831939,27.2266786 0,24.5475153 0,21.5 C0,18.4522653 1.5781,15.7733214 3.96245,14.2353694 Z M31.1530612,13.9585459 C31.1530612,12.0389031 26.9267755,10.5306122 21.6096939,10.5306122 C16.2926122,10.5306122 12.0663265,12.0389031 12.0663265,13.9585459 L12.0663265,28.3558673 C12.0663265,29.1142908 12.6755663,29.7270408 13.4296679,29.7270408 L13.4296679,31.0982143 C13.4296679,31.8566378 14.0389077,32.4693878 14.7930092,32.4693878 L16.1563724,32.4693878 C16.9104082,32.4693878 17.519648,31.8566378 17.519648,31.0982143 L17.519648,29.7270408 L25.6997398,29.7270408 L25.6997398,31.0982143 C25.6997398,31.8566378 26.3089796,32.4693878 27.0630153,32.4693878 L28.4262908,32.4693878 C29.1805459,32.4693878 29.7897857,31.8566378 29.7897857,31.0982143 L29.7897857,29.7270408 C30.5438214,29.7270408 31.1530612,29.1142908 31.1530612,28.3558673 L31.1530612,13.9585459 Z" id="Shape"></path>
            </g>
        </g>
    </g>
</svg>