<?xml version="1.0" encoding="UTF-8"?>
<svg width="47px" height="35px" viewBox="0 0 47 35" version="1.1" xmlns="http://www.w3.org/2000/svg" xmlns:xlink="http://www.w3.org/1999/xlink">
    <title>bat</title>
    <g id="Page-1" stroke="none" stroke-width="1" fill="none" fill-rule="evenodd">
        <g id="page04" transform="translate(-920, -1062)" fill="#FFFFFF" fill-rule="nonzero">
            <g id="btn03" transform="translate(898, 1055)">
                <g id="bat" transform="translate(22, 7)">
                    <path d="M16.6526533,27.1791508 C15.6319864,26.2723474 14.6635339,25.8825185 13.7696734,26.0306451 C12.4191442,26.2501075 11.6147941,27.6327623 11.228159,28.2966045 C11.0042312,28.7095467 10.7462476,29.102592 10.4569608,29.4715465 C10.3758535,28.9212294 10.3421602,28.3648126 10.3562617,27.808584 L10.3778105,27.0272476 C10.3821455,26.8425683 10.2666993,26.6767412 10.0934674,26.6188166 C9.92023537,26.560892 9.72997029,26.6244966 9.6248459,26.7754743 L8.71316619,28.0863738 C8.58386116,28.2691507 8.33356218,28.3128882 8.15123996,28.1845654 L6.85665476,27.2613968 C6.70725099,27.154782 6.50651028,27.1598737 6.36256527,27.2739291 C6.21862027,27.3879846 6.16546794,27.5840661 6.23173975,27.7565509 L6.51063087,28.4829167 C6.70816562,29.0032804 6.86068557,29.5400365 6.96647073,30.0871321 C6.57142574,29.8378385 6.19783417,29.5552719 5.84966307,29.2424328 C5.0942121,28.6016698 3.32555345,27.10236 1.56849799,28.514808 C1.07445927,28.9361777 0.666985443,29.4517248 0.369224764,30.0321616 C0.251120801,30.2465885 0.138818435,30.471506 0.0377048664,30.7006196 C-0.030444656,30.8511497 -0.00479591444,31.0281865 0.103180046,31.1525527 C0.281786391,31.3581675 0.495616725,31.2683684 0.724779854,31.2285043 C1.06398724,31.1503809 1.41985791,31.2333615 1.69116036,31.4538413 C2.06768713,31.8081299 2.27720554,32.308153 2.26717618,32.8285234 C2.27163473,33.0008994 2.3797791,33.1529663 2.53981571,33.2118948 C2.69985231,33.2708233 2.87919911,33.2246161 2.99196155,33.0954031 C3.29737591,32.685139 3.79147326,32.4651744 4.29649235,32.5146461 C4.83106819,32.6371757 5.1194905,33.2871704 5.26743125,33.8108588 C5.30719564,33.9516247 5.4165417,34.0612253 5.55595401,34.1000532 C5.69536632,34.1388812 5.84468443,34.1013215 5.94994784,34.0009476 C6.2145987,33.6980161 6.60665544,33.5419636 7.00418111,33.5813255 C7.32907061,33.6694461 7.50850576,34.0651498 7.60174573,34.3811252 C7.64045304,34.5118866 7.73955616,34.6154099 7.86742384,34.6586531 C7.99529152,34.7018963 8.1359408,34.6794541 8.24447993,34.5984895 C8.40123358,34.4566672 8.61494199,34.3981719 8.82091015,34.4407116 C8.96816019,34.4854812 9.08906235,34.5926038 9.15243005,34.7344471 C9.22600792,34.9180753 9.41503249,35.0259591 9.60826991,34.9946128 C9.80209885,34.9606495 9.94563933,34.7933838 9.9518074,34.5942933 C9.96389308,34.4393179 10.0417464,34.2972629 10.1652233,34.2048839 C10.3448596,34.0937105 10.5661269,34.0760917 10.760716,34.1574666 C10.8898939,34.1968618 11.0299245,34.1701169 11.1360548,34.0857793 C11.2421851,34.0014418 11.3011291,33.8700695 11.2940486,33.7336483 C11.2338845,33.3848064 11.3446646,33.0280959 11.5911733,32.7769099 C11.9510498,32.6058916 12.369993,32.6194605 12.7183409,32.813417 C12.8508262,32.8723292 13.0040635,32.8569999 13.1226037,32.7729761 C13.2411438,32.6889523 13.3078183,32.5484034 13.2985008,32.4021873 C13.2636912,31.8587767 13.3192208,31.1487761 13.7821054,30.8495855 C14.2411964,30.629525 14.7805207,30.6686814 15.2039114,30.9528125 C15.35308,31.0361439 15.5374155,31.0185409 15.6685694,30.9084402 C15.7997232,30.7983395 15.8509693,30.6181772 15.7977464,30.4543015 C15.6155041,29.9674316 15.6468561,29.4249836 15.8839416,28.9629644 C16.0680591,28.6619667 16.3778671,28.4626126 16.7251733,28.4216519 C16.9506068,28.3851448 17.1810132,28.392698 17.2783971,28.1400855 C17.3387491,27.9862733 17.3041773,27.8109076 17.19013,27.6923487 C17.0123524,27.5114915 16.8316741,27.337768 16.6526533,27.1791508 L16.6526533,27.1791508 Z" id="Path"></path>
                    <path d="M46.3475406,4.54156934 C45.8770604,4.04694817 45.3905889,3.57795503 44.9024341,3.14398689 C42.1898085,0.727262717 39.6278375,-0.303838759 37.2830112,0.0771647694 C33.7363142,0.654649937 31.5926413,4.34850477 30.5607831,6.12965355 C29.8659379,7.46170483 29.0147295,8.70345183 28.0257448,9.82777972 C28.0190116,9.79873461 28.0131201,9.76798096 28.0080702,9.73808158 C27.7241489,8.05379934 27.602378,6.34547094 27.644479,4.63724735 L27.7025526,2.50157735 C27.7108037,2.12610788 27.4764887,1.78920661 27.1251544,1.67138618 C26.77382,1.55356576 26.3878805,1.68246387 26.1741232,1.98901655 L23.6879003,5.56669094 C23.2436352,6.19565513 22.3849362,6.34763012 21.757164,5.90839814 L18.2306664,3.3840362 C17.9273871,3.1658477 17.5190019,3.17544775 17.2259995,3.40765325 C16.9329972,3.63985875 16.8247824,4.03966627 16.9597807,4.39121817 L17.7172623,6.37739127 C18.3230927,7.97292284 18.7741072,9.62464367 19.0638962,11.3090804 C19.0697877,11.3389798 19.0731543,11.3688792 19.0765208,11.3987786 C17.7727164,10.6764841 16.5597897,9.79674637 15.4641754,8.77873862 C13.4635824,7.07618249 8.77140492,3.08931374 4.16675862,6.79683686 C2.85037808,7.92705257 1.76545307,9.30862586 0.973552982,10.8631525 C0.656252369,11.441492 0.353259741,12.0488765 0.0746748527,12.6682208 C-0.061729746,12.9746334 -0.00835975024,13.3337629 0.211021535,13.5857047 C0.622586521,14.0615319 1.13009917,13.7873119 1.6317203,13.698468 C2.6370465,13.4740115 3.68848302,13.7219796 4.49331734,14.3733398 C5.59248049,15.3889583 6.20403262,16.8382475 6.16987655,18.3465402 C6.17896892,18.6972086 6.39834226,19.0065929 6.7230599,19.1266999 C7.04777753,19.246807 7.41183013,19.1532211 7.64107409,18.8907089 C8.54135952,17.6886566 9.99558522,17.0522283 11.4747725,17.2129266 C12.7372418,17.5033777 13.7244927,18.798448 14.3321613,20.9580375 C14.4127809,21.2449438 14.6350289,21.4683738 14.9184555,21.5474501 C15.2018821,21.6265264 15.5054201,21.5497911 15.7191942,21.3450209 C16.5322244,20.5667828 17.782069,19.8415092 18.8635844,20.1328146 C19.6766146,20.3549243 20.2943829,21.1579362 20.6916399,22.5145138 C20.7699581,22.7811545 20.9713064,22.9923759 21.2312822,23.0806174 C21.491258,23.168859 21.7772847,23.1230635 21.9978748,22.9578789 C22.4946776,22.5126287 23.1713422,22.3354483 23.8183555,22.4811973 C24.3048875,22.6295956 24.7025377,22.9875996 24.9057623,23.4601885 C25.0554926,23.8336822 25.4393268,24.0529153 25.8315732,23.9889804 C26.2249388,23.9199041 26.5163787,23.5798468 26.5292978,23.174863 C26.5649011,22.6601231 26.8223475,22.1875195 27.2329141,21.8832097 C27.7939261,21.5244541 28.4905247,21.4608995 29.1055768,21.7123561 C29.3680857,21.7926187 29.6526587,21.7380751 29.8682537,21.5661752 C30.0838486,21.3942752 30.203443,21.1265647 30.1887755,20.8486912 C30.1147106,19.4314606 30.4261197,18.4661377 31.1221611,17.9809135 C32.0395554,17.3350869 33.4602542,17.5939301 34.4845376,18.0501092 C34.7537582,18.1701304 35.065172,18.1388392 35.305982,17.9675697 C35.5467919,17.7963003 35.6820795,17.5098872 35.6628423,17.2120723 C35.5197624,14.9704731 36.0222252,13.4139968 37.114682,12.7092257 C38.4545244,12.0539292 40.0344459,12.1576182 41.2799889,12.9825914 C41.5827926,13.151966 41.9568453,13.1161531 42.2231041,12.8922949 C42.4893628,12.6684368 42.593658,12.3020765 42.4860679,11.9685753 C41.9544591,10.5596537 42.0505516,8.98602936 42.7495032,7.65452193 C43.2961274,6.76176619 44.2113165,6.1679271 45.2390926,6.03910114 C45.7440803,5.95367434 46.3012501,6.03312127 46.5301779,5.45136476 C46.6511566,5.13805822 46.5796501,4.78185316 46.3475406,4.54156934 L46.3475406,4.54156934 Z" id="Path"></path>
                </g>
            </g>
        </g>
    </g>
</svg>